<svg xmlns="http://www.w3.org/2000/svg" xmlns:xlink="http://www.w3.org/1999/xlink" width="1920" zoomAndPan="magnify" viewBox="0 0 1440 809.999993" height="1080" preserveAspectRatio="xMidYMid meet" version="1.0"><defs><clipPath id="80e02b1db9"><path d="M 378 2 L 979 2 L 979 678.609375 L 378 678.609375 Z M 378 2 " clip-rule="nonzero"/></clipPath><clipPath id="db02e54ba1"><path d="M 788.117188 315.632812 L 1083.363281 315.632812 L 1083.363281 810 L 788.117188 810 Z M 788.117188 315.632812 " clip-rule="nonzero"/></clipPath></defs><g clip-path="url(#80e02b1db9)"><path fill="#539e43" d="M 678.527344 678.515625 C 669.195312 678.515625 660.5 676.03125 652.433594 671.691406 L 569.808594 622.589844 C 557.382812 615.765625 563.597656 613.28125 567.324219 612.039062 C 584.097656 606.433594 587.203125 605.191406 604.597656 595.25 C 606.460938 594.007812 608.945312 594.640625 610.8125 595.882812 L 674.164062 633.777344 C 676.648438 635.019531 679.769531 635.019531 681.644531 633.777344 L 929.496094 490.246094 C 931.980469 489.003906 933.222656 486.515625 933.222656 483.398438 L 933.222656 196.921875 C 933.222656 193.820312 931.980469 191.332031 929.496094 190.089844 L 681.644531 47.164062 C 679.160156 45.917969 676.039062 45.917969 674.164062 47.164062 L 426.3125 190.089844 C 423.816406 191.332031 422.574219 194.441406 422.574219 196.925781 L 422.574219 483.402344 C 422.574219 485.886719 423.816406 489.003906 426.300781 490.246094 L 494.015625 529.382812 C 530.671875 548.027344 553.65625 526.289062 553.65625 504.527344 L 553.65625 221.78125 C 553.65625 218.054688 556.761719 214.328125 561.109375 214.328125 L 592.796875 214.328125 C 596.523438 214.328125 600.25 217.433594 600.25 221.785156 L 600.25 504.53125 C 600.25 553.632812 573.535156 582.214844 526.941406 582.214844 C 512.652344 582.214844 501.472656 582.214844 469.789062 566.667969 L 404.558594 529.386719 C 388.40625 520.078125 378.464844 502.679688 378.464844 484.035156 L 378.464844 197.5625 C 378.464844 178.90625 388.40625 161.507812 404.558594 152.1875 L 652.433594 8.640625 C 667.953125 -0.0585938 689.097656 -0.0585938 704.617188 8.640625 L 952.492188 152.1875 C 968.644531 161.507812 978.585938 178.90625 978.585938 197.550781 L 978.585938 484.027344 C 978.585938 502.667969 968.644531 520.066406 952.492188 529.375 L 704.617188 672.929688 C 696.550781 676.65625 687.222656 678.511719 678.527344 678.511719 Z M 754.945312 481.546875 C 646.222656 481.546875 623.859375 431.8125 623.859375 389.554688 C 623.859375 385.828125 626.953125 382.097656 631.3125 382.097656 L 663.617188 382.097656 C 667.34375 382.097656 670.4375 384.585938 670.4375 388.3125 C 675.40625 421.257812 689.707031 437.414062 755.554688 437.414062 C 807.738281 437.414062 830.101562 425.597656 830.101562 397.644531 C 830.101562 381.488281 823.890625 369.671875 742.523438 361.605469 C 674.796875 354.757812 632.554688 339.84375 632.554688 285.792969 C 632.554688 235.453125 674.796875 205.625 745.617188 205.625 C 825.132812 205.625 864.28125 232.964844 869.25 292.617188 C 869.25 294.496094 868.617188 296.347656 867.375 298.222656 C 866.132812 299.464844 864.28125 300.707031 862.40625 300.707031 L 830.101562 300.707031 C 827.007812 300.707031 823.890625 298.222656 823.28125 295.105469 C 815.824219 260.9375 796.558594 249.753906 745.617188 249.753906 C 688.464844 249.753906 681.644531 269.636719 681.644531 284.550781 C 681.644531 302.5625 689.707031 308.164062 766.738281 318.105469 C 843.160156 328.050781 879.191406 342.328125 879.191406 395.769531 C 878.558594 450.453125 833.828125 481.546875 754.945312 481.546875 Z M 754.945312 481.546875 " fill-opacity="1" fill-rule="nonzero"/></g><g clip-path="url(#db02e54ba1)"><path fill="#ffe13e" d="M 788.140625 810 L 889.296875 545.195312 L 796.605469 545.195312 L 889.296875 315.632812 L 1044.570312 315.632812 L 948.335938 482.785156 L 1083.335938 481.011719 Z M 788.140625 810 " fill-opacity="1" fill-rule="nonzero"/><path fill="#ffd13e" d="M 788.140625 810 L 980.804688 516.058594 L 891.066406 516.058594 L 1044.570312 315.632812 L 948.335938 482.785156 L 1083.335938 481.011719 Z M 788.140625 810 " fill-opacity="1" fill-rule="nonzero"/></g></svg>